<?xml version="1.0" standalone="no"?>
<!DOCTYPE svg PUBLIC "-//W3C//DTD SVG 20010904//EN"
 "http://www.w3.org/TR/2001/REC-SVG-20010904/DTD/svg10.dtd">
<svg version="1.0" xmlns="http://www.w3.org/2000/svg"
 width="945.000000pt" height="264.000000pt" viewBox="0 0 945.000000 264.000000"
 preserveAspectRatio="xMidYMid meet">

<g transform="translate(0.000000,264.000000) scale(0.100000,-0.100000)"
fill="#000000" stroke="none">
<path d="M58 1525 c-2 -163 0 -206 10 -210 8 -3 37 -5 67 -5 142 0 348 -58
512 -145 55 -29 105 -50 109 -47 4 4 4 1 0 -5 -4 -7 -3 -13 2 -13 4 0 47 -31
94 -69 47 -39 89 -67 94 -63 4 4 4 2 1 -4 -7 -13 16 -37 26 -29 4 3 5 2 2 -1
-2 -4 17 -32 44 -63 172 -199 276 -444 303 -714 l12 -117 203 0 203 0 0 49 c0
136 -49 384 -105 536 -38 104 -127 275 -138 268 -6 -3 -7 -1 -4 4 9 14 -97
169 -112 165 -7 -1 -9 2 -6 9 8 13 5 17 -131 154 -106 108 -170 161 -191 159
-7 -1 -10 2 -8 6 6 9 -153 118 -159 110 -2 -3 -12 2 -22 11 -31 27 -104 60
-116 53 -7 -4 -8 -3 -4 4 4 7 2 13 -3 13 -17 2 -23 4 -76 28 -115 52 -345 102
-527 115 l-77 6 -3 -205z"/>
<path d="M4589 1720 c-151 -14 -293 -47 -447 -102 -51 -19 -79 -34 -75 -41 4
-6 0 -8 -9 -4 -27 10 -243 -107 -232 -125 4 -7 2 -8 -5 -4 -15 10 -43 -13 -34
-27 3 -6 1 -7 -6 -3 -14 9 -64 -21 -56 -34 3 -5 0 -12 -6 -16 -8 -4 -9 -3 -5
4 15 25 -10 10 -68 -40 -79 -69 -106 -97 -106 -108 0 -6 -4 -9 -9 -7 -27 7
-278 -331 -267 -360 3 -7 0 -12 -6 -10 -17 3 -101 -191 -142 -325 -40 -132
-66 -291 -66 -402 l0 -76 204 0 203 0 6 103 c6 111 44 277 84 366 13 30 21 62
18 70 -3 9 -3 12 1 8 8 -8 75 104 68 114 -2 4 3 10 12 13 9 3 14 13 10 21 -3
8 0 17 6 21 7 5 8 2 4 -7 -4 -8 -1 -5 8 5 8 10 13 23 9 29 -3 6 -2 7 4 4 14
-9 56 50 47 66 -4 6 -4 9 1 5 8 -7 219 189 220 204 0 3 4 10 9 15 5 5 6 3 2
-4 -11 -20 -4 -16 70 33 138 93 309 160 478 190 110 19 314 21 416 5 98 -16
239 -57 317 -92 35 -15 63 -26 63 -23 0 3 6 0 13 -6 6 -5 53 -36 102 -68 50
-32 107 -73 127 -90 21 -19 42 -30 51 -26 8 3 18 1 22 -5 4 -7 -1 -8 -12 -4
-13 4 -9 -3 11 -25 16 -17 33 -29 38 -26 5 3 7 1 6 -4 -2 -5 20 -38 49 -73 28
-36 68 -89 88 -119 21 -30 42 -54 47 -52 5 1 7 -2 4 -7 -3 -5 14 -51 39 -104
25 -52 45 -99 45 -106 0 -6 5 -11 11 -11 5 0 8 -4 5 -8 -2 -4 4 -38 14 -75 20
-71 37 -183 44 -277 l3 -55 207 -3 206 -2 0 24 c0 114 -58 447 -79 454 -6 2
-8 9 -5 17 5 12 -42 144 -55 155 -3 3 -6 11 -7 18 -2 29 -5 33 -16 26 -7 -4
-8 -3 -4 5 9 15 -74 172 -87 164 -6 -3 -7 -1 -3 5 8 14 -72 134 -84 127 -4 -3
-7 1 -6 9 1 19 -93 128 -105 121 -5 -3 -6 0 -3 8 6 17 -124 140 -139 130 -5
-3 -7 -1 -4 4 9 14 -29 47 -43 38 -6 -3 -9 -1 -8 6 3 14 -140 121 -152 114 -5
-3 -10 -2 -12 3 -5 13 -101 70 -168 101 -268 120 -590 177 -861 151z"/>
<path d="M9264 1719 c-212 -19 -405 -73 -602 -170 -122 -60 -272 -153 -272
-169 0 -4 -9 -10 -21 -13 -13 -4 -18 -10 -13 -18 4 -7 3 -10 -3 -6 -14 9 -165
-132 -156 -146 3 -5 1 -7 -4 -4 -20 13 -146 -142 -231 -284 -141 -234 -224
-499 -239 -761 l-6 -108 205 0 205 0 7 98 c6 102 33 231 66 320 11 30 17 59
14 65 -4 7 -4 9 1 5 4 -4 25 29 46 73 21 43 56 106 79 138 22 33 37 66 34 74
-3 8 -1 18 5 22 7 4 8 -1 4 -12 -6 -16 -5 -16 10 -4 9 7 14 17 11 22 -3 5 -2
9 3 8 4 -1 53 43 108 97 108 106 204 176 325 236 148 73 341 124 494 130 l66
2 0 208 0 208 -22 -1 c-13 -1 -64 -5 -114 -10z"/>
<path d="M52 673 l3 -208 60 -7 c174 -22 322 -170 357 -357 l12 -61 204 0 205
0 -6 84 c-22 308 -251 601 -553 707 -72 25 -192 49 -245 49 l-39 0 2 -207z"/>
<path d="M4615 873 c-161 -22 -339 -109 -462 -226 -142 -134 -239 -335 -259
-539 l-7 -68 210 0 210 0 6 56 c3 30 19 84 36 119 109 233 401 319 617 182
100 -63 182 -191 191 -299 l6 -58 208 0 209 0 0 39 c0 22 -6 73 -14 113 -77
403 -434 694 -841 686 -44 0 -93 -3 -110 -5z"/>
<path d="M9247 865 c-279 -56 -518 -252 -621 -511 -28 -69 -49 -159 -61 -256
l-6 -58 208 0 209 0 11 66 c31 182 185 333 357 351 l56 6 0 208 0 209 -42 -1
c-24 0 -74 -7 -111 -14z"/>
</g>
</svg>
